<?xml version="1.0" encoding="UTF-8"?>
<svg xmlns="http://www.w3.org/2000/svg" xmlns:xlink="http://www.w3.org/1999/xlink" width="32px" height="32px" viewBox="0 0 32 32" version="1.1">
<defs>
<clipPath id="clip1">
  <path d="M 11 13.402344 L 12 13.402344 L 12 18.597656 L 11 18.597656 Z M 11 13.402344 "/>
</clipPath>
<clipPath id="clip2">
  <path d="M 12.898438 13.414062 L 27.15625 13.414062 L 27.15625 18.589844 L 12.898438 18.589844 Z M 12.898438 13.414062 "/>
</clipPath>
<clipPath id="clip3">
  <path d="M 4.816406 13.414062 L 9.992188 13.414062 L 9.992188 18.589844 L 4.816406 18.589844 Z M 4.816406 13.414062 "/>
</clipPath>
</defs>
<g id="surface1">
<rect x="0" y="0" width="32" height="32" style="fill:rgb(16.078431%,47.45098%,100%);fill-opacity:1;stroke:none;"/>
<g clip-path="url(#clip1)" clip-rule="nonzero">
<path style=" stroke:none;fill-rule:nonzero;fill:rgb(100%,100%,100%);fill-opacity:1;" d="M 11.433594 13.402344 L 11.453125 13.402344 C 11.578125 13.402344 11.679688 13.5 11.679688 13.625 L 11.679688 18.378906 C 11.679688 18.5 11.578125 18.601562 11.453125 18.601562 L 11.433594 18.601562 C 11.3125 18.601562 11.210938 18.5 11.210938 18.378906 L 11.210938 13.625 C 11.210938 13.5 11.3125 13.402344 11.433594 13.402344 Z M 11.433594 13.402344 "/>
</g>
<g clip-path="url(#clip2)" clip-rule="nonzero">
<path style=" stroke:none;fill-rule:nonzero;fill:rgb(100%,100%,100%);fill-opacity:1;" d="M 14.601562 15.53125 L 15.875 15.53125 C 16.136719 15.53125 16.320312 15.574219 16.429688 15.65625 C 16.535156 15.742188 16.585938 15.882812 16.585938 16.085938 C 16.585938 16.253906 16.523438 16.375 16.398438 16.445312 C 16.273438 16.515625 16.074219 16.554688 15.808594 16.554688 L 14.609375 16.554688 L 14.609375 17.339844 L 16.214844 17.34375 C 16.492188 17.34375 16.691406 17.386719 16.8125 17.464844 C 16.933594 17.546875 16.992188 17.691406 16.992188 17.902344 C 16.992188 18.136719 16.921875 18.304688 16.78125 18.398438 C 16.640625 18.492188 16.429688 18.539062 16.140625 18.539062 L 13.742188 18.539062 C 13.453125 18.539062 13.238281 18.460938 13.105469 18.304688 C 12.96875 18.148438 12.898438 17.875 12.898438 17.480469 L 12.898438 14.355469 C 12.898438 13.761719 13.179688 13.464844 13.742188 13.464844 L 16.140625 13.464844 C 16.429688 13.464844 16.640625 13.511719 16.78125 13.597656 C 16.921875 13.6875 16.992188 13.847656 16.992188 14.082031 C 16.992188 14.296875 16.933594 14.449219 16.8125 14.535156 C 16.691406 14.621094 16.492188 14.664062 16.214844 14.664062 L 14.601562 14.664062 Z M 19.746094 13.414062 C 20.335938 13.414062 20.835938 13.535156 21.25 13.777344 C 21.664062 14.019531 21.871094 14.277344 21.871094 14.546875 C 21.871094 14.621094 21.855469 14.683594 21.824219 14.734375 C 21.792969 14.789062 21.75 14.824219 21.703125 14.847656 C 21.65625 14.867188 21.609375 14.878906 21.554688 14.878906 C 21.464844 14.878906 21.332031 14.835938 21.152344 14.742188 C 20.976562 14.652344 20.777344 14.558594 20.5625 14.46875 C 20.34375 14.378906 20.144531 14.332031 19.960938 14.332031 C 19.671875 14.332031 19.523438 14.449219 19.523438 14.6875 C 19.523438 14.761719 19.546875 14.832031 19.59375 14.898438 C 19.640625 14.964844 19.71875 15.035156 19.820312 15.105469 C 19.925781 15.175781 20.027344 15.242188 20.125 15.292969 C 20.222656 15.347656 20.359375 15.421875 20.53125 15.511719 C 20.703125 15.605469 20.851562 15.683594 20.96875 15.753906 C 21.347656 15.972656 21.613281 16.179688 21.769531 16.375 C 21.921875 16.574219 21.996094 16.800781 21.996094 17.058594 C 21.996094 18.078125 21.308594 18.589844 19.933594 18.589844 C 19.660156 18.589844 19.398438 18.5625 19.144531 18.507812 C 18.890625 18.453125 18.667969 18.382812 18.476562 18.292969 C 18.289062 18.203125 18.121094 18.105469 17.972656 17.996094 C 17.828125 17.886719 17.71875 17.777344 17.644531 17.664062 C 17.570312 17.550781 17.535156 17.445312 17.535156 17.34375 C 17.535156 17.238281 17.570312 17.144531 17.640625 17.066406 C 17.710938 16.992188 17.816406 16.953125 17.957031 16.953125 C 18.058594 16.953125 18.308594 17.019531 18.703125 17.148438 C 19.097656 17.28125 19.417969 17.34375 19.660156 17.34375 C 19.878906 17.34375 19.992188 17.269531 19.992188 17.117188 C 19.992188 17.070312 19.984375 17.03125 19.964844 16.992188 C 19.949219 16.957031 19.917969 16.917969 19.875 16.882812 C 19.835938 16.84375 19.789062 16.8125 19.734375 16.777344 C 19.683594 16.746094 19.613281 16.707031 19.519531 16.65625 C 19.429688 16.609375 19.339844 16.558594 19.246094 16.507812 C 19.15625 16.460938 19.035156 16.394531 18.886719 16.316406 C 18.742188 16.238281 18.597656 16.160156 18.460938 16.078125 C 18.277344 15.976562 18.121094 15.847656 17.988281 15.695312 C 17.859375 15.542969 17.761719 15.390625 17.703125 15.238281 C 17.644531 15.089844 17.617188 14.949219 17.617188 14.820312 C 17.617188 14.40625 17.800781 14.070312 18.171875 13.808594 C 18.539062 13.546875 19.066406 13.414062 19.746094 13.414062 Z M 25.617188 14.746094 L 25.617188 17.425781 C 25.617188 17.707031 25.582031 17.929688 25.515625 18.097656 C 25.445312 18.261719 25.347656 18.375 25.226562 18.441406 C 25.109375 18.503906 24.949219 18.539062 24.75 18.539062 C 24.460938 18.539062 24.25 18.460938 24.117188 18.304688 C 23.988281 18.148438 23.917969 17.875 23.914062 17.480469 L 23.898438 14.746094 L 23.269531 14.746094 C 22.960938 14.746094 22.726562 14.699219 22.570312 14.597656 C 22.414062 14.5 22.339844 14.324219 22.339844 14.074219 C 22.339844 13.921875 22.367188 13.800781 22.429688 13.710938 C 22.492188 13.621094 22.585938 13.558594 22.707031 13.519531 C 22.832031 13.484375 22.996094 13.464844 23.203125 13.464844 L 26.371094 13.464844 C 26.648438 13.464844 26.847656 13.515625 26.972656 13.613281 C 27.09375 13.714844 27.15625 13.882812 27.15625 14.125 C 27.15625 14.289062 27.121094 14.414062 27.050781 14.503906 C 26.976562 14.597656 26.882812 14.660156 26.765625 14.695312 C 26.648438 14.730469 26.492188 14.746094 26.304688 14.746094 Z M 25.617188 14.746094 "/>
</g>
<g clip-path="url(#clip3)" clip-rule="nonzero">
<path style=" stroke:none;fill-rule:nonzero;fill:rgb(100%,100%,100%);fill-opacity:1;" d="M 8.007812 18.480469 C 7.308594 18.597656 6.566406 18.386719 6.015625 17.941406 C 5.492188 17.519531 5.164062 16.855469 5.1875 16.179688 C 5.210938 15.523438 5.546875 14.871094 6.101562 14.511719 C 6.671875 14.144531 7.449219 14.148438 8.015625 14.519531 C 8.542969 14.871094 8.835938 15.550781 8.660156 16.167969 C 8.566406 16.488281 8.363281 16.78125 8.070312 16.953125 C 7.769531 17.128906 7.386719 17.164062 7.058594 17.039062 C 6.761719 16.925781 6.511719 16.683594 6.417969 16.378906 C 6.324219 16.066406 6.402344 15.703125 6.636719 15.46875 C 6.859375 15.242188 7.21875 15.164062 7.507812 15.304688 C 7.785156 15.4375 7.957031 15.765625 7.855469 16.066406 C 7.796875 16.226562 7.667969 16.363281 7.503906 16.410156 C 7.328125 16.457031 7.128906 16.398438 7.019531 16.25 C 6.914062 16.105469 6.921875 15.890625 7.058594 15.769531 C 7.125 15.707031 7.226562 15.675781 7.316406 15.703125 C 7.34375 15.710938 7.460938 15.742188 7.449219 15.78125 C 7.457031 15.738281 7.363281 15.730469 7.335938 15.722656 C 7.253906 15.699219 7.160156 15.722656 7.09375 15.78125 C 6.980469 15.882812 6.964844 16.070312 7.054688 16.191406 C 7.148438 16.316406 7.324219 16.367188 7.46875 16.320312 C 7.617188 16.269531 7.71875 16.125 7.742188 15.972656 C 7.792969 15.667969 7.496094 15.40625 7.203125 15.417969 C 6.894531 15.429688 6.648438 15.699219 6.613281 16 C 6.542969 16.558594 7.183594 16.9375 7.679688 16.8125 C 8.234375 16.671875 8.515625 16.007812 8.378906 15.484375 C 8.226562 14.898438 7.609375 14.535156 7.023438 14.542969 C 6.390625 14.550781 5.839844 15.011719 5.601562 15.578125 C 5.339844 16.207031 5.457031 16.953125 5.875 17.484375 C 6.292969 18.023438 6.972656 18.335938 7.648438 18.371094 C 8.023438 18.390625 8.410156 18.335938 8.75 18.175781 C 9.070312 18.023438 9.328125 17.769531 9.527344 17.480469 C 9.9375 16.882812 10.089844 16.121094 9.925781 15.414062 C 9.644531 14.203125 8.425781 13.316406 7.183594 13.421875 C 5.96875 13.527344 4.929688 14.570312 4.824219 15.785156 C 4.765625 16.484375 5.003906 17.199219 5.46875 17.71875 C 5.925781 18.238281 6.597656 18.554688 7.289062 18.585938 C 7.6875 18.605469 8.085938 18.53125 8.449219 18.367188 C 8.289062 18.421875 8.125 18.476562 7.957031 18.488281 C 7.988281 18.484375 8.019531 18.472656 8.054688 18.472656 C 7.9375 18.472656 7.828125 18.523438 7.714844 18.527344 C 7.78125 18.523438 7.847656 18.511719 7.914062 18.492188 C 7.9375 18.484375 8.007812 18.453125 8.027344 18.476562 C 8.015625 18.460938 7.941406 18.488281 7.921875 18.492188 C 7.863281 18.507812 7.796875 18.519531 7.734375 18.523438 C 7.761719 18.523438 8.027344 18.480469 8.027344 18.476562 C 8.027344 18.480469 7.769531 18.515625 7.730469 18.527344 C 7.777344 18.511719 7.828125 18.511719 7.875 18.503906 C 7.894531 18.5 8.015625 18.464844 8.027344 18.476562 C 8.027344 18.472656 8.011719 18.480469 8.007812 18.480469 C 7.3125 18.59375 8.167969 18.453125 8.007812 18.480469 Z M 8.007812 18.480469 "/>
</g>
</g>
</svg>
