<?xml version="1.0" encoding="UTF-8"?>
<svg xmlns="http://www.w3.org/2000/svg" xmlns:xlink="http://www.w3.org/1999/xlink" width="32px" height="32px" viewBox="0 0 32 32" version="1.1">
<g id="surface1">
<path style="fill-rule:nonzero;fill:rgb(100%,100%,100%);fill-opacity:1;stroke-width:1;stroke-linecap:butt;stroke-linejoin:miter;stroke:rgb(0%,0%,0%);stroke-opacity:1;stroke-miterlimit:4;" d="M 35.000774 0 C 35.000774 19.331442 19.331442 35.000774 0 35.000774 C -19.331442 35.000774 -35.000774 19.331442 -35.000774 0 C -35.000774 -19.331442 -19.331442 -35.000774 0 -35.000774 C 19.331442 -35.000774 35.000774 -19.331442 35.000774 0 Z M 35.000774 0 " transform="matrix(0.417067,0,0,0.417067,16,16)"/>
<path style=" stroke:none;fill-rule:nonzero;fill:rgb(0%,0%,0%);fill-opacity:1;" d="M 8.503906 9.476562 C 8.136719 9.660156 7.921875 10.125 7.878906 10.84375 C 7.816406 11.957031 8.136719 13.390625 8.703125 14.546875 L 8.996094 15.140625 L 8.671875 15.742188 C 8.136719 16.738281 7.347656 18.355469 7.195312 18.78125 C 6.914062 19.546875 6.695312 20.351562 6.695312 20.585938 C 6.695312 20.921875 6.914062 21.332031 7.203125 21.53125 C 7.542969 21.765625 7.6875 21.789062 8.453125 21.734375 C 9.378906 21.671875 11.234375 21.792969 12.425781 22 C 12.933594 22.082031 12.964844 22.09375 13.214844 22.300781 C 13.929688 22.882812 14.972656 23.394531 15.726562 23.53125 C 16.210938 23.621094 16.859375 23.574219 17.359375 23.40625 C 18.078125 23.160156 18.789062 22.769531 19.378906 22.292969 C 19.609375 22.101562 19.648438 22.082031 20.15625 22 C 21.335938 21.792969 23.191406 21.671875 24.113281 21.734375 C 24.886719 21.789062 25.03125 21.765625 25.367188 21.546875 C 25.617188 21.375 25.828125 21.039062 25.875 20.734375 C 25.914062 20.464844 25.847656 20.144531 25.546875 19.238281 C 25.296875 18.480469 24.683594 17.164062 23.914062 15.738281 L 23.582031 15.136719 L 23.882812 14.546875 C 24.449219 13.394531 24.769531 11.957031 24.703125 10.84375 C 24.660156 10.117188 24.449219 9.65625 24.078125 9.476562 C 23.824219 9.355469 23.636719 9.359375 23.046875 9.488281 C 22.273438 9.664062 21.605469 9.964844 20.492188 10.648438 L 20.023438 10.941406 L 19.589844 10.730469 C 19.042969 10.457031 18.46875 10.265625 17.816406 10.136719 C 17.375 10.046875 17.171875 10.035156 16.316406 10.035156 C 15.460938 10.035156 15.25 10.050781 14.808594 10.136719 C 14.171875 10.265625 13.457031 10.503906 12.957031 10.75 L 12.574219 10.941406 L 12.074219 10.640625 C 10.902344 9.933594 10.3125 9.664062 9.539062 9.488281 C 8.949219 9.359375 8.753906 9.355469 8.503906 9.476562 Z M 9.261719 10.082031 C 10.042969 10.226562 10.648438 10.515625 12.207031 11.472656 C 12.359375 11.5625 12.515625 11.632812 12.5625 11.632812 C 12.601562 11.632812 12.828125 11.535156 13.054688 11.414062 C 13.75 11.039062 14.773438 10.746094 15.652344 10.664062 L 15.976562 10.632812 L 15.976562 11.449219 C 15.976562 12.203125 15.984375 12.265625 16.066406 12.355469 C 16.117188 12.402344 16.214844 12.445312 16.292969 12.445312 C 16.367188 12.445312 16.46875 12.402344 16.515625 12.355469 C 16.605469 12.265625 16.609375 12.203125 16.609375 11.453125 L 16.609375 10.640625 L 16.761719 10.640625 C 16.84375 10.640625 16.980469 10.65625 17.054688 10.671875 C 17.191406 10.695312 17.195312 10.707031 17.195312 10.914062 C 17.195312 11.277344 17.457031 11.460938 17.703125 11.273438 C 17.796875 11.195312 17.828125 11.140625 17.828125 10.996094 C 17.828125 10.839844 17.832031 10.824219 17.941406 10.824219 C 18.152344 10.824219 19.007812 11.140625 19.484375 11.390625 C 19.738281 11.519531 19.988281 11.632812 20.039062 11.632812 C 20.085938 11.632812 20.246094 11.5625 20.386719 11.464844 C 21.222656 10.929688 22.113281 10.453125 22.632812 10.265625 C 23.007812 10.132812 23.667969 9.996094 23.777344 10.035156 C 24.003906 10.105469 24.125 10.804688 24.046875 11.59375 C 23.929688 12.839844 23.671875 13.636719 22.957031 14.914062 L 22.851562 15.105469 L 23.132812 15.636719 C 23.289062 15.921875 23.703125 16.742188 24.0625 17.453125 C 24.59375 18.515625 24.75 18.878906 24.960938 19.519531 C 25.273438 20.480469 25.292969 20.582031 25.1875 20.804688 C 25.074219 21.050781 24.839844 21.144531 24.402344 21.113281 C 23.734375 21.070312 23.832031 21.144531 23.410156 20.296875 C 22.765625 19.007812 22.117188 18.132812 21.234375 17.363281 C 20.644531 16.847656 20.332031 16.621094 19.75 16.289062 C 18.953125 15.832031 18.589844 15.773438 18.160156 16.027344 C 17.878906 16.191406 17.789062 16.332031 17.347656 17.289062 C 16.921875 18.203125 16.859375 18.449219 16.96875 18.78125 C 17.0625 19.074219 17.222656 19.234375 17.746094 19.578125 C 18.480469 20.054688 18.863281 20.472656 19.203125 21.140625 L 19.371094 21.464844 L 19.195312 21.621094 C 18.332031 22.355469 17.246094 22.882812 16.464844 22.929688 C 15.578125 22.992188 14.5625 22.558594 13.371094 21.601562 L 13.265625 21.519531 L 13.386719 21.21875 C 13.65625 20.542969 14.0625 20.085938 14.832031 19.582031 C 15.515625 19.136719 15.695312 18.878906 15.652344 18.375 C 15.628906 18.105469 14.921875 16.515625 14.703125 16.253906 C 14.441406 15.933594 14.003906 15.804688 13.582031 15.925781 C 13.28125 16.015625 12.460938 16.484375 12.011719 16.828125 C 10.734375 17.785156 9.953125 18.746094 9.175781 20.296875 C 8.753906 21.144531 8.847656 21.070312 8.179688 21.113281 C 7.742188 21.144531 7.515625 21.050781 7.394531 20.804688 C 7.292969 20.582031 7.308594 20.480469 7.621094 19.519531 C 7.832031 18.878906 7.988281 18.515625 8.523438 17.453125 C 8.878906 16.742188 9.296875 15.921875 9.453125 15.636719 L 9.734375 15.105469 L 9.628906 14.914062 C 9.257812 14.25 9.070312 13.855469 8.933594 13.453125 C 8.46875 12.109375 8.367188 10.488281 8.730469 10.101562 C 8.832031 9.992188 8.800781 9.992188 9.261719 10.082031 Z M 13.972656 17.328125 C 14.492188 17.671875 14.257812 18.484375 13.628906 18.484375 C 13.25 18.484375 13.003906 18.226562 13.003906 17.832031 C 13.003906 17.371094 13.578125 17.074219 13.972656 17.328125 Z M 19.191406 17.285156 C 19.433594 17.386719 19.582031 17.601562 19.582031 17.84375 C 19.582031 18.234375 19.328125 18.484375 18.949219 18.484375 C 18.285156 18.484375 18.089844 17.605469 18.683594 17.300781 C 18.871094 17.203125 18.996094 17.203125 19.191406 17.285156 Z M 19.191406 17.285156 "/>
<path style=" stroke:none;fill-rule:nonzero;fill:rgb(0%,0%,0%);fill-opacity:1;" d="M 9.261719 10.746094 C 9.144531 10.855469 9.121094 11.019531 9.125 11.507812 C 9.136719 12.300781 9.425781 13.390625 9.824219 14.078125 C 9.925781 14.257812 10.058594 14.433594 10.113281 14.464844 C 10.261719 14.542969 10.449219 14.472656 10.535156 14.320312 C 10.597656 14.207031 10.589844 14.175781 10.347656 13.6875 C 10.015625 13.019531 9.839844 12.421875 9.757812 11.628906 C 9.742188 11.5 9.757812 11.441406 9.792969 11.441406 C 9.867188 11.441406 10.578125 11.808594 10.816406 11.972656 C 10.921875 12.046875 11.140625 12.21875 11.296875 12.359375 C 11.609375 12.640625 11.777344 12.679688 11.9375 12.519531 C 12.109375 12.351562 12.058594 12.199219 11.734375 11.898438 C 11.375 11.5625 11.035156 11.328125 10.539062 11.078125 C 9.78125 10.699219 9.402344 10.597656 9.261719 10.746094 Z M 9.261719 10.746094 "/>
<path style=" stroke:none;fill-rule:nonzero;fill:rgb(0%,0%,0%);fill-opacity:1;" d="M 22.933594 10.828125 C 22.167969 11.140625 21.621094 11.484375 21.171875 11.910156 C 20.859375 12.210938 20.804688 12.355469 20.972656 12.519531 C 21.132812 12.679688 21.3125 12.640625 21.59375 12.382812 C 21.730469 12.257812 21.960938 12.078125 22.105469 11.976562 C 22.386719 11.789062 23.050781 11.441406 23.136719 11.441406 C 23.210938 11.441406 23.148438 11.953125 22.996094 12.566406 C 22.902344 12.941406 22.789062 13.238281 22.585938 13.644531 C 22.320312 14.171875 22.3125 14.207031 22.375 14.320312 C 22.464844 14.484375 22.660156 14.546875 22.8125 14.453125 C 23.058594 14.316406 23.527344 13.234375 23.703125 12.390625 C 23.792969 11.953125 23.835938 11.332031 23.796875 11.0625 C 23.734375 10.640625 23.519531 10.582031 22.933594 10.828125 Z M 22.933594 10.828125 "/>
<path style=" stroke:none;fill-rule:nonzero;fill:rgb(0%,0%,0%);fill-opacity:1;" d="M 16.078125 20.609375 C 15.695312 20.800781 15.503906 21.144531 15.53125 21.582031 C 15.550781 21.917969 15.699219 22.171875 15.984375 22.355469 C 16.140625 22.460938 16.210938 22.480469 16.515625 22.480469 C 16.816406 22.480469 16.882812 22.460938 17.046875 22.355469 C 17.148438 22.285156 17.289062 22.144531 17.359375 22.042969 C 17.464844 21.882812 17.484375 21.8125 17.484375 21.511719 C 17.484375 21.207031 17.464844 21.140625 17.359375 20.980469 C 17.164062 20.6875 16.921875 20.546875 16.5625 20.527344 C 16.328125 20.519531 16.226562 20.535156 16.078125 20.609375 Z M 16.078125 20.609375 "/>
</g>
</svg>
