<?xml version="1.0" standalone="no"?>
<!DOCTYPE svg PUBLIC "-//W3C//DTD SVG 20010904//EN"
 "http://www.w3.org/TR/2001/REC-SVG-20010904/DTD/svg10.dtd">
<svg version="1.0" xmlns="http://www.w3.org/2000/svg"
 width="752.000000pt" height="752.000000pt" viewBox="0 0 752.000000 752.000000"
 preserveAspectRatio="xMidYMid meet">

<g transform="translate(0.000000,752.000000) scale(0.100000,-0.100000)"
fill="#000000" stroke="none">
<path d="M2032 5339 c-82 -41 -129 -144 -139 -304 -14 -247 57 -565 183 -822
l65 -131 -72 -134 c-119 -221 -294 -579 -328 -674 -62 -170 -111 -348 -111
-401 0 -74 49 -165 113 -209 75 -52 108 -57 277 -45 206 14 618 -13 882 -59
113 -19 120 -21 175 -67 159 -129 390 -243 557 -273 108 -20 252 -9 363 28
159 54 317 141 448 247 51 42 60 46 172 65 262 46 674 73 879 59 171 -12 203
-7 278 42 55 37 102 112 112 179 9 60 -6 131 -72 332 -56 169 -192 461 -363
777 l-73 134 66 131 c126 255 197 574 183 821 -10 161 -57 264 -140 304 -56
27 -98 26 -228 -3 -172 -39 -320 -106 -567 -258 l-104 -64 -96 47 c-122 60
-249 102 -394 131 -98 20 -143 23 -333 23 -189 0 -236 -4 -334 -23 -142 -29
-300 -81 -411 -136 l-85 -42 -111 67 c-260 156 -391 216 -563 255 -131 29
-174 30 -229 3z m168 -135 c173 -32 308 -96 654 -308 33 -20 68 -36 78 -36 9
0 59 22 110 49 154 83 381 148 576 166 l72 7 0 -181 c0 -168 1 -182 20 -201
11 -11 33 -20 50 -20 17 0 39 9 50 20 19 19 20 33 20 200 l0 180 34 0 c18 0
48 -3 65 -6 30 -6 31 -9 31 -54 0 -81 59 -122 113 -80 21 17 27 30 27 61 0 35
2 39 26 39 47 0 236 -70 342 -126 57 -29 112 -54 123 -54 11 0 46 16 77 37
186 119 384 225 499 266 83 30 229 60 254 52 50 -16 77 -171 60 -346 -26 -277
-84 -453 -242 -737 l-24 -42 63 -118 c34 -64 127 -246 206 -403 118 -236 153
-317 200 -459 69 -213 73 -236 50 -285 -26 -55 -77 -76 -174 -69 -148 10 -127
-7 -221 181 -143 287 -286 481 -482 651 -131 115 -200 165 -330 239 -177 101
-257 114 -353 58 -62 -36 -82 -68 -180 -280 -94 -203 -108 -257 -84 -331 21
-65 56 -101 173 -177 162 -106 248 -198 323 -346 l37 -73 -39 -34 c-191 -163
-432 -280 -606 -291 -197 -14 -422 83 -686 295 l-23 18 26 67 c60 150 150 251
321 363 152 99 191 156 182 268 -5 60 -162 413 -211 471 -58 71 -155 99 -248
72 -67 -20 -249 -123 -349 -199 -283 -213 -457 -426 -629 -771 -94 -188 -73
-171 -221 -181 -97 -7 -148 14 -174 69 -23 49 -19 72 50 285 47 142 82 223
200 459 79 157 172 339 206 403 l63 118 -24 42 c-82 147 -124 235 -154 324
-103 298 -125 658 -45 744 23 24 16 24 118 4z m1045 -1608 c116 -76 63 -256
-76 -256 -84 0 -139 57 -139 144 0 103 127 169 215 112z m1158 10 c54 -22 87
-70 87 -124 0 -86 -56 -142 -141 -142 -147 0 -190 195 -58 262 41 22 69 22
112 4z"/>
<path d="M2186 5064 c-25 -24 -31 -61 -30 -169 2 -176 67 -417 155 -570 23
-40 52 -79 65 -86 32 -17 74 -2 93 32 14 25 12 32 -42 140 -73 148 -112 281
-131 457 -3 29 0 42 8 42 17 0 175 -82 227 -118 24 -16 72 -55 107 -86 69 -62
107 -71 142 -36 38 38 27 72 -45 138 -80 75 -155 127 -265 182 -168 85 -252
107 -284 74z"/>
<path d="M5155 5046 c-170 -70 -291 -145 -391 -240 -70 -67 -81 -99 -44 -136
35 -35 75 -26 138 31 30 28 81 68 113 90 62 42 210 119 229 119 17 0 3 -114
-31 -250 -21 -83 -46 -149 -91 -239 -59 -117 -61 -125 -47 -150 20 -36 63 -50
97 -30 55 31 159 271 197 458 20 97 30 235 21 295 -14 93 -61 106 -191 52z"/>
<path d="M3663 2930 c-85 -43 -127 -119 -121 -216 5 -74 37 -130 100 -171 36
-24 51 -28 118 -28 67 0 82 4 118 28 23 15 54 46 69 69 24 36 28 51 28 118 0
67 -4 82 -28 118 -43 65 -97 96 -176 100 -52 2 -75 -1 -108 -18z"/>
</g>
</svg>
