<svg xmlns="http://www.w3.org/2000/svg" version="1.1" xmlns:xlink="http://www.w3.org/1999/xlink" xmlns:svgjs="http://svgjs.dev/svgjs" width="1000" height="1000" viewBox="0 0 1000 1000"><rect width="1000" height="1000" fill="#2979ff"></rect><g transform="matrix(0.7,0,0,0.7,149.57575778834627,418.85529815305114)"><svg viewBox="0 0 396 92" data-background-color="#2979ff" preserveAspectRatio="xMidYMid meet" height="232" width="1000" xmlns="http://www.w3.org/2000/svg" xmlns:xlink="http://www.w3.org/1999/xlink"><g id="tight-bounds" transform="matrix(1,0,0,1,0.24000012026453987,-0.03132653990581957)"><svg viewBox="0 0 395.52 92.06265307981167" height="92.06265307981167" width="395.52"><g><svg viewBox="0 0 619.7840085536297 144.2631476635514" height="92.06265307981167" width="395.52"><g><rect width="12.945074165042245" height="144.2631476635514" x="177.4313056842885" y="0" fill="#ffffff" opacity="1" stroke-width="0" stroke="transparent" fill-opacity="1" class="rect-o-0" data-fill-palette-color="primary" rx="1%" id="o-0" data-palette-color="#ffffff"></rect></g><g transform="matrix(1,0,0,1,224.26400855362982,0.35886355140186765)"><svg viewBox="0 0 395.52 143.54542056074766" height="143.54542056074766" width="395.52"><g id="textblocktransform"><svg viewBox="0 0 395.52 143.54542056074766" height="143.54542056074766" width="395.52" id="textblock"><g><svg viewBox="0 0 395.52 143.54542056074766" height="143.54542056074766" width="395.52"><g transform="matrix(1,0,0,1,0,0)"><svg width="395.52" viewBox="3.450000047683716 -34.599998474121094 96.30000305175781 34.94999694824219" height="143.54542056074766" data-palette-color="#ffffff"><path d="M14.95-20.3L23.55-20.3Q26.2-20.3 27.28-19.45 28.35-18.6 28.35-16.55L28.35-16.55Q28.35-14.85 27.08-14.13 25.8-13.4 23.1-13.4L23.1-13.4 15-13.4 15-8.1 25.85-8.05Q28.65-8.05 29.88-7.23 31.1-6.4 31.1-4.3L31.1-4.3Q31.1-1.9 29.68-0.95 28.25 0 25.35 0L25.35 0 9.15 0Q6.2 0 4.83-1.58 3.45-3.15 3.45-7.15L3.45-7.15 3.45-28.25Q3.45-34.25 9.15-34.25L9.15-34.25 25.35-34.25Q28.25-34.25 29.68-33.35 31.1-32.45 31.1-30.1L31.1-30.1Q31.1-27.9 29.88-27.03 28.65-26.15 25.85-26.15L25.85-26.15 14.95-26.15 14.95-20.3ZM49.7-34.6L49.7-34.6Q55.65-34.6 59.85-32.15 64.05-29.7 64.05-26.95L64.05-26.95Q64.05-26.2 63.72-25.68 63.4-25.15 62.92-24.93 62.45-24.7 61.9-24.7L61.9-24.7Q61-24.7 59.2-25.63 57.4-26.55 55.2-27.48 53-28.4 51.15-28.4L51.15-28.4Q48.2-28.4 48.2-26L48.2-26Q48.2-25.25 48.67-24.58 49.15-23.9 50.2-23.18 51.25-22.45 52.25-21.9 53.25-21.35 55-20.43 56.75-19.5 57.95-18.8L57.95-18.8Q61.8-16.6 63.35-14.6 64.9-12.6 64.9-10L64.9-10Q64.9 0.35 50.95 0.35L50.95 0.35Q48.2 0.35 45.62-0.2 43.05-0.75 41.12-1.65 39.2-2.55 37.72-3.65 36.25-4.75 35.5-5.9 34.75-7.05 34.75-8.05L34.75-8.05Q34.75-9.15 35.47-9.93 36.2-10.7 37.6-10.7L37.6-10.7Q38.65-10.7 42.65-9.38 46.65-8.05 49.1-8.05L49.1-8.05Q51.35-8.05 51.35-9.6L51.35-9.6Q51.35-10.05 51.17-10.43 51-10.8 50.57-11.18 50.15-11.55 49.62-11.88 49.1-12.2 48.17-12.7 47.25-13.2 46.32-13.7 45.4-14.2 43.9-15 42.4-15.8 41-16.6L41-16.6Q39.15-17.65 37.82-19.2 36.5-20.75 35.9-22.28 35.3-23.8 35.3-25.1L35.3-25.1Q35.3-29.3 39.05-31.95 42.8-34.6 49.7-34.6ZM89.35-25.6L89.35-7.5Q89.35-4.65 88.65-2.98 87.95-1.3 86.72-0.65 85.5 0 83.5 0L83.5 0Q80.55 0 79.22-1.58 77.9-3.15 77.85-7.15L77.85-7.15 77.75-25.6 73.5-25.6Q70.35-25.6 68.77-26.6 67.2-27.6 67.2-30.15L67.2-30.15Q67.2-31.7 67.82-32.6 68.45-33.5 69.7-33.88 70.95-34.25 73.05-34.25L73.05-34.25 94.45-34.25Q97.25-34.25 98.5-33.25 99.75-32.25 99.75-29.8L99.75-29.8Q99.75-28.15 99.02-27.23 98.3-26.3 97.1-25.95 95.9-25.6 94-25.6L94-25.6 89.35-25.6Z" opacity="1" transform="matrix(1,0,0,1,0,0)" fill="#ffffff" class="wordmark-text-0" data-fill-palette-color="primary" id="text-0"></path></svg></g></svg></g></svg></g></svg></g><g transform="matrix(1,0,0,1,0,0.35886355140186765)"><svg viewBox="0 0 143.54367697998944 143.54542056074766" height="143.54542056074766" width="143.54367697998944"><g><svg xmlns="http://www.w3.org/2000/svg" xmlns:xlink="http://www.w3.org/1999/xlink" version="1.1" x="0" y="0" viewBox="5.412825107574463 5.195577621459961 79.76930236816406 79.77027130126953" enable-background="new 0 0 90 90" xml:space="preserve" height="143.54542056074766" width="143.54367697998944" class="icon-icon-0" data-fill-palette-color="accent" id="icon-0"><path d="M54.624 83.27c-10.792 1.801-22.246-1.411-30.727-8.272-8.062-6.522-13.088-16.744-12.728-27.17 0.349-10.096 5.499-20.182 14.078-25.707 8.769-5.647 20.783-5.62 29.498 0.129 8.154 5.379 12.661 15.857 9.907 25.391-1.424 4.931-4.572 9.475-9.052 12.082-4.663 2.714-10.561 3.268-15.615 1.341-4.544-1.733-8.418-5.448-9.851-10.154-1.47-4.826-0.243-10.416 3.327-14.027 3.452-3.492 8.998-4.743 13.484-2.567 4.259 2.065 6.884 7.148 5.307 11.755-0.85 2.483-2.859 4.611-5.423 5.317-2.69 0.741-5.774-0.221-7.439-2.493-1.629-2.222-1.495-5.503 0.597-7.389 1.054-0.95 2.599-1.429 3.984-1.015 0.41 0.122 2.233 0.566 2.058 1.209 0.087-0.652-1.341-0.82-1.755-0.934-1.29-0.356-2.733 0.004-3.719 0.904-1.739 1.586-1.995 4.459-0.597 6.34 1.417 1.906 4.102 2.721 6.348 1.971 2.287-0.765 3.875-3.013 4.245-5.344 0.746-4.703-3.812-8.759-8.323-8.569-4.774 0.201-8.548 4.373-9.111 8.971-1.056 8.621 8.8 14.488 16.466 12.536 8.546-2.177 12.86-12.372 10.766-20.465-2.34-9.045-11.891-14.664-20.877-14.543-9.785 0.131-18.28 7.23-21.955 16.011-4.038 9.649-2.194 21.17 4.201 29.364 6.485 8.309 16.93 13.113 27.352 13.664 5.766 0.305 11.749-0.537 17.004-3.006 4.955-2.328 8.907-6.258 11.976-10.734 6.303-9.194 8.662-20.938 6.135-31.824C79.845 17.355 61.052 3.689 41.936 5.329 23.164 6.939 7.154 22.991 5.551 41.756c-0.918 10.74 2.777 21.76 9.928 29.817 7.078 7.976 17.424 12.875 28.071 13.353 6.118 0.275 12.303-0.876 17.903-3.359-2.472 0.844-4.993 1.695-7.622 1.838 0.506-0.028 0.982-0.246 1.492-0.242-1.79-0.014-3.465 0.776-5.242 0.87 1.034-0.055 2.103-0.271 3.095-0.566 0.337-0.101 1.458-0.578 1.755-0.242-0.207-0.235-1.358 0.182-1.613 0.243-0.926 0.221-1.953 0.452-2.902 0.51 0.426-0.026 4.536-0.711 4.53-0.755 0.008 0.065-4.022 0.607-4.613 0.769 0.714-0.196 1.505-0.245 2.235-0.367 0.292-0.048 2.164-0.591 2.374-0.402C54.91 83.194 54.661 83.264 54.624 83.27 43.928 85.055 57.114 82.88 54.624 83.27z" fill="#ffffff" data-fill-palette-color="accent"></path></svg></g></svg></g></svg></g><defs></defs></svg><rect width="395.52" height="92.06265307981167" fill="none" stroke="none" visibility="hidden"></rect></g></svg></g></svg>